<svg width="30" height="30" viewBox="0 0 30 30" fill="none" xmlns="http://www.w3.org/2000/svg">
<path d="M26 18.791C26 24.5755 22.4001 27.1138 19.6183 27.9698C19.0251 28.1523 18.6353 27.4685 18.9901 26.9643C20.2007 25.2441 21.6 22.6195 21.6 20.1507C21.6 17.4986 19.3394 14.3675 17.5742 12.4363C17.1706 11.9948 16.4667 12.287 16.4447 12.8817C16.3717 14.852 16.0573 17.4882 14.7014 19.5543C14.4831 19.8868 14.0198 19.9144 13.7712 19.6034C13.3475 19.0736 12.9239 18.4191 12.5002 17.9021C12.272 17.6236 11.8596 17.6198 11.5963 17.8662C10.5701 18.8271 9.13333 20.3254 9.13333 22.1901C9.13333 23.5351 9.78158 25.2092 10.4498 26.5056C10.7533 27.0943 10.1903 27.7849 9.61196 27.4539C7.08768 26.009 4 23.0152 4 18.791C4 14.5131 9.92665 8.58686 12.1896 2.98807C12.5467 2.1046 13.6471 1.68947 14.4125 2.266C19.0479 5.75758 26 12.507 26 18.791Z" fill="#EB6161" stroke="#EB6161" stroke-width="1.5"/>
</svg>
