<svg width="462" height="462" viewBox="0 0 462 462" fill="none" xmlns="http://www.w3.org/2000/svg">
<path d="M139.5 102.9C88.9659 102.9 48 143.866 48 194.4C48 231.921 70.5839 264.167 102.9 278.286V354.525H359.069L359.1 278.286C391.416 264.167 414 231.921 414 194.4C414 143.866 373.034 102.9 322.5 102.9C317.916 102.9 313.41 103.237 309.006 103.888C297.985 71.3884 267.224 48 231 48C194.776 48 164.015 71.3884 152.994 103.888C148.59 103.237 144.084 102.9 139.5 102.9Z" fill="white"/>
<path d="M359.069 354.525H102.931C103.117 380.089 104.427 394.087 113.62 403.28C124.34 414 141.593 414 176.1 414H285.9C320.407 414 337.66 414 348.38 403.28C357.573 394.087 358.883 380.089 359.069 354.525Z" fill="white"/>
<path d="M359.069 354.525H102.9V278.286C70.5839 264.167 48 231.921 48 194.4C48 143.866 88.9659 102.9 139.5 102.9C144.084 102.9 148.59 103.237 152.994 103.888C164.015 71.3884 194.776 48 231 48C267.224 48 297.985 71.3884 309.006 103.888C313.41 103.237 317.916 102.9 322.5 102.9C373.034 102.9 414 143.866 414 194.4C414 231.921 391.416 264.167 359.1 278.286L359.069 354.525ZM359.069 354.525H102.931C103.117 380.089 104.427 394.087 113.62 403.28C124.34 414 141.593 414 176.1 414H285.9C320.407 414 337.66 414 348.38 403.28C357.573 394.087 358.883 380.089 359.069 354.525Z" stroke="#FF8787" stroke-width="20" stroke-linecap="round"/>
</svg>
