<svg width="30" height="30" viewBox="0 0 30 30" fill="none" xmlns="http://www.w3.org/2000/svg">
<path d="M18.2877 3C16.7611 2.99998 15.5306 2.99996 14.5628 3.13007C13.5581 3.26516 12.7121 3.55416 12.0402 4.22607C11.4542 4.81203 11.1581 5.53212 11.0027 6.37825C10.8517 7.20046 10.8228 8.20666 10.8161 9.41395C10.8135 9.87632 11.1862 10.2532 11.6486 10.2558C12.111 10.2584 12.4879 9.88564 12.4904 9.42327C12.4972 8.20262 12.5289 7.33741 12.6496 6.68076C12.7658 6.04804 12.9524 5.68182 13.2241 5.41006C13.5331 5.10111 13.9668 4.89969 14.7859 4.78956C15.6291 4.6762 16.7466 4.67442 18.3489 4.67442H19.4652C21.0675 4.67442 22.185 4.6762 23.0282 4.78956C23.8473 4.89969 24.281 5.10111 24.59 5.41006C24.8989 5.719 25.1003 6.15276 25.2105 6.97186C25.3238 7.81504 25.3256 8.93256 25.3256 10.5349V19.4651C25.3256 21.0674 25.3238 22.185 25.2105 23.0281C25.1003 23.8472 24.8989 24.281 24.59 24.5899C24.281 24.8989 23.8473 25.1003 23.0282 25.2104C22.185 25.3238 21.0675 25.3256 19.4652 25.3256H18.3489C16.7466 25.3256 15.6291 25.3238 14.7859 25.2104C13.9668 25.1003 13.5331 24.8989 13.2241 24.5899C12.9524 24.3182 12.7658 23.952 12.6496 23.3192C12.5289 22.6626 12.4972 21.7974 12.4904 20.5767C12.4879 20.1144 12.111 19.7416 11.6486 19.7442C11.1862 19.7468 10.8135 20.1237 10.8161 20.5861C10.8228 21.7933 10.8517 22.7995 11.0027 23.6217C11.1581 24.4679 11.4542 25.188 12.0402 25.7739C12.7121 26.4458 13.5581 26.7348 14.5628 26.8699C15.5306 27 16.7611 27 18.2877 27H19.5264C21.053 27 22.2835 27 23.2513 26.8699C24.2561 26.7348 25.102 26.4458 25.7739 25.7739C26.4459 25.102 26.7348 24.256 26.8699 23.2513C27 22.2835 27 21.053 27 19.5264V10.4736C27 8.94702 27 7.71652 26.8699 6.74874C26.7348 5.74397 26.4459 4.89797 25.7739 4.22607C25.102 3.55416 24.2561 3.26516 23.2513 3.13007C22.2835 2.99996 21.0531 2.99998 19.5265 3H18.2877Z" fill="#222222"/>
<path d="M18.3487 14.1628C18.8111 14.1628 19.1859 14.5376 19.1859 15C19.1859 15.4624 18.8111 15.8372 18.3487 15.8372H6.10037L8.28898 17.7132C8.64004 18.0141 8.6807 18.5426 8.37979 18.8937C8.07888 19.2447 7.55036 19.2854 7.1993 18.9845L3.29236 15.6357C3.1068 15.4766 3 15.2444 3 15C3 14.7556 3.1068 14.5234 3.29236 14.3643L7.1993 11.0155C7.55035 10.7146 8.07888 10.7553 8.37979 11.1063C8.6807 11.4574 8.64004 11.9859 8.28898 12.2868L6.10037 14.1628H18.3487Z" fill="#222222"/>
</svg>
