<svg width="24" height="24" viewBox="0 0 24 24" fill="none" xmlns="http://www.w3.org/2000/svg">
<path fill-rule="evenodd" clip-rule="evenodd" d="M6 21.75H19C20.5188 21.75 21.75 20.5187 21.75 19V13.5C21.75 13.0857 21.4142 12.75 21 12.75H17.75V4.94315C17.75 3.51975 16.1411 2.69178 14.9828 3.51912L14.8078 3.64415C14.0273 4.20164 12.9701 4.19977 12.1859 3.63966C10.8821 2.70833 9.11794 2.70833 7.81407 3.63966C7.02992 4.19977 5.9727 4.20164 5.19221 3.64415L5.01717 3.51912C3.8589 2.69178 2.25 3.51975 2.25 4.94315V18C2.25 20.071 3.92893 21.75 6 21.75ZM8.68593 4.86026C9.46825 4.30146 10.5318 4.30146 11.3141 4.86026C12.6161 5.79028 14.3739 5.79739 15.6796 4.86475L15.8547 4.73972C16.0202 4.62153 16.25 4.73981 16.25 4.94315V19C16.25 19.4501 16.3581 19.8749 16.5499 20.25H6C4.75736 20.25 3.75 19.2426 3.75 18V4.94315C3.75 4.73981 3.97984 4.62153 4.14531 4.73972L4.32036 4.86475C5.62605 5.79739 7.3839 5.79028 8.68593 4.86026ZM17.75 19V14.25H20.25V19C20.25 19.6903 19.6904 20.25 19 20.25C18.3096 20.25 17.75 19.6903 17.75 19Z" fill="#222222"/>
<path d="M7 12.75C7 12.3358 7.33579 12 7.75 12H9.5V10.25C9.5 9.83579 9.83579 9.5 10.25 9.5C10.6642 9.5 11 9.83579 11 10.25V12H12.75C13.1642 12 13.5 12.3358 13.5 12.75C13.5 13.1642 13.1642 13.5 12.75 13.5H11V15.25C11 15.6642 10.6642 16 10.25 16C9.83579 16 9.5 15.6642 9.5 15.25V13.5H7.75C7.33579 13.5 7 13.1642 7 12.75Z" fill="#222222"/>
</svg>
