<svg width="24" height="24" viewBox="0 0 24 24" fill="none" xmlns="http://www.w3.org/2000/svg">
<path d="M9.71741 6.8868C10.1455 6.45517 10.1455 5.75536 9.71741 5.32372C9.28933 4.89209 8.59528 4.89209 8.16721 5.32372L2.32106 11.2185C2.10702 11.4343 2 11.7171 2 12C2 12.1499 2.02958 12.2928 2.08317 12.4231C2.13667 12.5534 2.21596 12.6756 2.32106 12.7815L8.16721 18.6763C8.59528 19.1079 9.28933 19.1079 9.71741 18.6763C10.1455 18.2446 10.1455 17.5448 9.71741 17.1132L5.7425 13.1053H19.9038C20.5092 13.1053 21 12.6104 21 12C21 11.3896 20.5092 10.8947 19.9038 10.8947H5.7425L9.71741 6.8868Z" fill="#222222"/>
</svg>
