<svg width="163" height="163" viewBox="0 0 163 163" fill="none" xmlns="http://www.w3.org/2000/svg">
<path fill-rule="evenodd" clip-rule="evenodd" d="M35.0181 101.498C51.7038 118.184 78.0516 119.319 96.0514 104.902L131.067 139.918C133.056 141.907 136.281 141.907 138.27 139.918C140.26 137.928 140.26 134.703 138.27 132.714L103.255 97.6986C117.671 79.6989 116.537 53.3511 99.851 36.6655C81.9479 18.7624 52.9212 18.7624 35.0181 36.6655C17.115 54.5686 17.115 83.5952 35.0181 101.498ZM42.2218 43.8691C28.2972 57.7938 28.2972 80.3701 42.2218 94.2947C56.1362 108.209 78.6896 108.219 92.6167 94.3253L92.6472 94.2945L92.678 94.264C106.572 80.3369 106.562 57.7835 92.6474 43.8691C78.7227 29.9445 56.1464 29.9445 42.2218 43.8691Z" fill="white"/>
</svg>
